<svg width="200" height="200" viewBox="0 0 200 200" xmlns="http://www.w3.org/2000/svg">
  <!-- Background circle -->
  <circle cx="100" cy="100" r="95" fill="#2563eb" />
  
  <!-- Phone icon -->
  <path d="M70 60 C70 55, 72 53, 77 53 L87 53 C89 53, 90 54, 91 56 L95 67 C96 69, 95 71, 93 72 L85 76 C85 76, 90 90, 105 105 C120 120, 124 125, 124 125 L128 117 C129 115, 131 114, 133 115 L144 119 C146 120, 147 121, 147 123 L147 133 C147 138, 145 140, 140 140 C100 140, 60 100, 60 60 C60 55, 62 53, 67 53 Z" 
        fill="white" 
        stroke="white" 
        stroke-width="2"/>
  
  <!-- Capture symbol (target/crosshair) -->
  <circle cx="130" cy="70" r="18" fill="none" stroke="#fbbf24" stroke-width="3"/>
  <circle cx="130" cy="70" r="6" fill="#fbbf24"/>
  <line x1="130" y1="52" x2="130" y2="58" stroke="#fbbf24" stroke-width="3"/>
  <line x1="130" y1="82" x2="130" y2="88" stroke="#fbbf24" stroke-width="3"/>
  <line x1="112" y1="70" x2="118" y2="70" stroke="#fbbf24" stroke-width="3"/>
  <line x1="142" y1="70" x2="148" y2="70" stroke="#fbbf24" stroke-width="3"/>
</svg>
